<?xml version="1.0" encoding="utf-8"?>
<!-- Generator: Adobe Illustrator 16.0.0, SVG Export Plug-In . SVG Version: 6.00 Build 0)  -->
<!DOCTYPE svg PUBLIC "-//W3C//DTD SVG 1.1//EN" "http://www.w3.org/Graphics/SVG/1.1/DTD/svg11.dtd">
<svg version="1.1" id="Layer_1" xmlns="http://www.w3.org/2000/svg" xmlns:xlink="http://www.w3.org/1999/xlink" x="0px" y="0px"
	 width="188px" height="30px" viewBox="-31.5 -7.5 188 30" enable-background="new -31.5 -7.5 188 30" xml:space="preserve">
<g>
	<g>
		<g>
			<path fill="#4E4E50" d="M34.448,14.209c0,0.759-0.189,1.585-0.568,2.468c-0.381,0.888-0.978,1.758-1.793,2.604
				c-0.816,0.855-1.861,1.55-3.126,2.083c-1.271,0.533-2.748,0.794-4.436,0.794c-1.281,0-2.443-0.111-3.492-0.357
				c-1.047-0.234-2.001-0.606-2.854-1.113c-0.853-0.509-1.641-1.166-2.358-1.997c-0.636-0.748-1.183-1.589-1.635-2.518
				c-0.451-0.929-0.791-1.924-1.017-2.971c-0.229-1.055-0.34-2.174-0.34-3.36c0-1.922,0.283-3.643,0.85-5.164
				c0.567-1.522,1.381-2.826,2.442-3.906c1.058-1.082,2.3-1.905,3.722-2.469c1.424-0.562,2.938-0.844,4.549-0.844
				c1.961,0,3.71,0.384,5.245,1.155c1.534,0.771,2.706,1.727,3.522,2.859c0.815,1.139,1.226,2.212,1.226,3.22
				c0,0.554-0.197,1.041-0.597,1.466c-0.397,0.426-0.875,0.636-1.438,0.636c-0.629,0-1.1-0.144-1.416-0.439
				c-0.313-0.292-0.664-0.799-1.05-1.515c-0.638-1.184-1.392-2.067-2.258-2.657c-0.865-0.588-1.935-0.879-3.202-0.879
				c-2.019,0-3.625,0.756-4.82,2.263c-1.196,1.51-1.796,3.657-1.796,6.44c0,1.855,0.264,3.405,0.794,4.639
				c0.531,1.226,1.28,2.154,2.249,2.76c0.972,0.606,2.105,0.912,3.406,0.912c1.415,0,2.609-0.344,3.582-1.038
				c0.979-0.688,1.712-1.696,2.209-3.037c0.21-0.627,0.471-1.141,0.779-1.536c0.309-0.394,0.807-0.593,1.49-0.593
				c0.586,0,1.085,0.2,1.507,0.599C34.239,13.108,34.448,13.611,34.448,14.209z"/>
			<path fill="#4E4E50" d="M49.967,19.649c-1.089,0.839-2.146,1.471-3.166,1.887c-1.018,0.416-2.165,0.624-3.431,0.624
				c-1.16,0-2.177-0.223-3.056-0.668c-0.875-0.457-1.554-1.063-2.026-1.843c-0.474-0.771-0.713-1.608-0.713-2.511
				c0-1.21,0.396-2.25,1.176-3.108c0.785-0.861,1.861-1.436,3.226-1.726c0.291-0.068,0.999-0.22,2.137-0.442
				c1.134-0.227,2.109-0.437,2.916-0.625c0.812-0.189,1.692-0.425,2.64-0.693c-0.054-1.178-0.295-2.036-0.721-2.584
				c-0.423-0.548-1.304-0.823-2.635-0.823c-1.149,0-2.009,0.158-2.592,0.471c-0.578,0.317-1.073,0.789-1.49,1.416
				c-0.41,0.633-0.702,1.048-0.874,1.248c-0.171,0.199-0.538,0.302-1.1,0.302c-0.509,0-0.949-0.161-1.317-0.48
				c-0.37-0.316-0.554-0.73-0.554-1.229c0-0.783,0.281-1.543,0.845-2.28c0.562-0.738,1.438-1.347,2.627-1.826
				c1.191-0.479,2.675-0.717,4.452-0.717c1.984,0,3.543,0.229,4.683,0.69c1.135,0.462,1.937,1.196,2.406,2.193
				c0.469,1,0.704,2.328,0.704,3.977c0,1.045-0.001,1.931-0.012,2.658c-0.004,0.729-0.012,1.534-0.024,2.425
				c0,0.839,0.142,1.714,0.422,2.619c0.281,0.906,0.421,1.488,0.421,1.746c0,0.463-0.218,0.873-0.654,1.245
				c-0.438,0.375-0.929,0.562-1.48,0.562c-0.463,0-0.922-0.211-1.373-0.639C50.953,21.085,50.475,20.467,49.967,19.649z
				 M49.668,13.216c-0.66,0.237-1.622,0.484-2.885,0.756c-1.263,0.267-2.139,0.458-2.622,0.587c-0.486,0.128-0.949,0.369-1.39,0.731
				c-0.44,0.363-0.66,0.876-0.66,1.529c0,0.669,0.261,1.248,0.776,1.717c0.519,0.475,1.196,0.709,2.035,0.709
				c0.896,0,1.719-0.192,2.473-0.577c0.759-0.384,1.313-0.882,1.667-1.488c0.406-0.676,0.609-1.781,0.609-3.328v-0.636H49.668z"/>
		</g>
		<g>
			<path fill="#4E4E50" d="M62.401-0.003v6.795c0.846-0.865,1.714-1.533,2.6-1.997c0.875-0.46,1.968-0.693,3.269-0.693
				c1.507,0,2.821,0.351,3.949,1.052c1.13,0.702,2.009,1.717,2.628,3.049c0.629,1.327,0.936,2.909,0.936,4.731
				c0,1.351-0.174,2.584-0.518,3.715c-0.347,1.122-0.852,2.093-1.519,2.922c-0.658,0.828-1.464,1.464-2.406,1.919
				c-0.942,0.445-1.985,0.667-3.116,0.667c-0.699,0-1.349-0.076-1.964-0.24c-0.61-0.163-1.134-0.378-1.562-0.647
				c-0.427-0.264-0.799-0.539-1.099-0.819c-0.306-0.285-0.705-0.706-1.199-1.271v0.437c0,0.843-0.205,1.47-0.614,1.903
				c-0.408,0.428-0.926,0.639-1.557,0.639c-0.639,0-1.147-0.211-1.528-0.639c-0.384-0.434-0.575-1.061-0.575-1.903V0.192
				c0-0.901,0.185-1.584,0.554-2.045c0.37-0.462,0.887-0.69,1.547-0.69c0.697,0,1.232,0.219,1.607,0.657
				C62.213-1.444,62.401-0.817,62.401-0.003z M62.616,13.216c0,1.775,0.411,3.129,1.233,4.078c0.822,0.958,1.902,1.427,3.233,1.427
				c1.134,0,2.111-0.479,2.938-1.458c0.816-0.968,1.231-2.365,1.231-4.179c0-1.175-0.17-2.183-0.514-3.03
				c-0.344-0.85-0.832-1.5-1.457-1.963c-0.626-0.465-1.357-0.692-2.2-0.692c-0.861,0-1.629,0.228-2.304,0.692
				c-0.667,0.464-1.198,1.132-1.583,2.002C62.807,10.966,62.616,12.008,62.616,13.216z"/>
			<path fill="#4E4E50" d="M90.821,19.649c-1.092,0.839-2.144,1.471-3.166,1.887c-1.025,0.416-2.165,0.624-3.434,0.624
				c-1.157,0-2.178-0.223-3.05-0.668c-0.876-0.457-1.555-1.063-2.023-1.843c-0.477-0.771-0.715-1.608-0.715-2.511
				c0-1.21,0.392-2.25,1.172-3.108c0.779-0.861,1.857-1.436,3.229-1.726c0.282-0.068,0.993-0.22,2.13-0.442
				c1.143-0.227,2.112-0.437,2.92-0.625c0.813-0.189,1.688-0.425,2.641-0.693c-0.059-1.178-0.297-2.036-0.72-2.584
				c-0.429-0.548-1.302-0.823-2.644-0.823c-1.146,0-2.01,0.158-2.588,0.471c-0.58,0.317-1.076,0.789-1.489,1.416
				c-0.409,0.633-0.706,1.048-0.879,1.248c-0.17,0.199-0.535,0.302-1.099,0.302c-0.502,0-0.943-0.161-1.313-0.48
				c-0.37-0.316-0.555-0.73-0.555-1.229c0-0.783,0.285-1.543,0.846-2.28c0.562-0.738,1.442-1.347,2.63-1.826
				c1.192-0.479,2.676-0.717,4.447-0.717c1.987,0,3.552,0.229,4.686,0.69c1.134,0.462,1.935,1.196,2.405,2.193
				c0.474,1,0.707,2.328,0.707,3.977c0,1.045-0.005,1.931-0.008,2.658c-0.006,0.729-0.015,1.534-0.026,2.425
				c0,0.839,0.136,1.714,0.423,2.619c0.276,0.906,0.418,1.488,0.418,1.746c0,0.463-0.218,0.873-0.649,1.245
				c-0.44,0.375-0.932,0.562-1.48,0.562c-0.467,0-0.921-0.211-1.376-0.639C91.812,21.085,91.33,20.467,90.821,19.649z
				 M90.527,13.216c-0.663,0.237-1.623,0.484-2.888,0.756c-1.265,0.267-2.141,0.458-2.622,0.587
				c-0.484,0.128-0.953,0.369-1.393,0.731c-0.438,0.363-0.661,0.876-0.661,1.529c0,0.669,0.262,1.248,0.782,1.717
				c0.52,0.475,1.194,0.709,2.035,0.709c0.896,0,1.716-0.192,2.471-0.577c0.755-0.384,1.308-0.882,1.66-1.488
				c0.414-0.676,0.616-1.781,0.616-3.328L90.527,13.216L90.527,13.216z"/>
			<path fill="#4E4E50" d="M110.958,19.649c-1.093,0.839-2.15,1.471-3.165,1.887c-1.022,0.416-2.167,0.624-3.435,0.624
				c-1.157,0-2.179-0.223-3.055-0.668c-0.872-0.457-1.548-1.063-2.027-1.843c-0.47-0.771-0.714-1.608-0.714-2.511
				c0-1.21,0.397-2.25,1.179-3.108c0.784-0.861,1.857-1.436,3.222-1.726c0.291-0.068,1.005-0.22,2.139-0.442
				c1.135-0.227,2.112-0.437,2.92-0.625c0.809-0.189,1.689-0.425,2.636-0.693c-0.053-1.178-0.29-2.036-0.72-2.584
				c-0.423-0.548-1.304-0.823-2.638-0.823c-1.144,0-2.01,0.158-2.586,0.471c-0.578,0.317-1.078,0.789-1.489,1.416
				c-0.411,0.633-0.708,1.048-0.878,1.248c-0.173,0.199-0.54,0.302-1.102,0.302c-0.509,0-0.943-0.161-1.313-0.48
				c-0.37-0.316-0.552-0.73-0.552-1.229c0-0.783,0.275-1.543,0.838-2.28c0.569-0.738,1.441-1.347,2.637-1.826
				c1.187-0.479,2.671-0.717,4.447-0.717c1.986,0,3.543,0.229,4.686,0.69c1.135,0.462,1.934,1.196,2.407,2.193
				c0.466,1,0.696,2.328,0.696,3.977c0,1.045-0.001,1.931-0.009,2.658c-0.003,0.729-0.012,1.534-0.021,2.425
				c0,0.839,0.142,1.714,0.426,2.619c0.279,0.906,0.418,1.488,0.418,1.746c0,0.463-0.215,0.873-0.656,1.245
				c-0.434,0.375-0.928,0.562-1.48,0.562c-0.461,0-0.919-0.211-1.369-0.639C111.941,21.085,111.468,20.467,110.958,19.649z
				 M110.657,13.216c-0.657,0.237-1.625,0.484-2.882,0.756c-1.264,0.267-2.139,0.458-2.626,0.587
				c-0.481,0.128-0.949,0.369-1.387,0.731c-0.444,0.363-0.664,0.876-0.664,1.529c0,0.669,0.265,1.248,0.778,1.717
				c0.52,0.475,1.198,0.709,2.033,0.709c0.896,0,1.722-0.192,2.477-0.577c0.755-0.384,1.31-0.882,1.662-1.488
				c0.405-0.676,0.608-1.781,0.608-3.328V13.216L110.657,13.216z"/>
			<path fill="#4E4E50" d="M123.78,6.531v0.537c0.792-1.029,1.664-1.789,2.604-2.272c0.943-0.481,2.028-0.725,3.254-0.725
				c1.186,0,2.253,0.255,3.188,0.766c0.936,0.51,1.639,1.232,2.101,2.168c0.299,0.543,0.49,1.128,0.584,1.758
				c0.085,0.636,0.129,1.436,0.129,2.41v8.28c0,0.894-0.206,1.567-0.619,2.027c-0.411,0.452-0.95,0.677-1.613,0.677
				c-0.667,0-1.214-0.23-1.639-0.7c-0.417-0.463-0.626-1.134-0.626-2.004v-7.415c0-1.466-0.206-2.587-0.626-3.363
				c-0.409-0.778-1.232-1.166-2.469-1.166c-0.805,0-1.537,0.237-2.2,0.71c-0.666,0.471-1.146,1.118-1.457,1.95
				c-0.22,0.656-0.332,1.897-0.332,3.71v5.577c0,0.902-0.214,1.579-0.634,2.034c-0.421,0.445-0.974,0.667-1.648,0.667
				c-0.652,0-1.189-0.23-1.606-0.7c-0.415-0.463-0.627-1.134-0.627-2.004V6.599c0-0.846,0.191-1.479,0.564-1.901
				c0.374-0.417,0.89-0.625,1.536-0.625c0.396,0,0.755,0.093,1.078,0.278c0.32,0.183,0.574,0.46,0.767,0.83
				S123.78,5.999,123.78,6.531z"/>
			<path fill="#4E4E50" d="M151.556,19.649c-1.093,0.839-2.15,1.471-3.166,1.887c-1.023,0.416-2.165,0.624-3.433,0.624
				c-1.159,0-2.179-0.223-3.055-0.668c-0.872-0.457-1.55-1.063-2.029-1.843c-0.47-0.771-0.705-1.608-0.705-2.511
				c0-1.21,0.391-2.25,1.172-3.108c0.782-0.861,1.854-1.436,3.229-1.726c0.282-0.068,0.996-0.22,2.13-0.442
				c1.134-0.227,2.112-0.437,2.919-0.625c0.808-0.189,1.69-0.425,2.637-0.693c-0.054-1.178-0.291-2.036-0.712-2.584
				c-0.43-0.548-1.311-0.823-2.644-0.823c-1.148,0-2.012,0.158-2.591,0.471c-0.578,0.317-1.076,0.789-1.486,1.416
				c-0.412,0.633-0.711,1.048-0.881,1.248c-0.169,0.199-0.536,0.302-1.099,0.302c-0.51,0-0.944-0.161-1.313-0.48
				c-0.37-0.316-0.553-0.73-0.553-1.229c0-0.783,0.284-1.543,0.844-2.28c0.563-0.738,1.434-1.347,2.629-1.826
				c1.187-0.479,2.67-0.717,4.45-0.717c1.986,0,3.542,0.229,4.686,0.69c1.131,0.462,1.934,1.196,2.406,2.193
				c0.464,1,0.705,2.328,0.705,3.977c0,1.045-0.004,1.931-0.009,2.658c-0.004,0.729-0.021,1.534-0.032,2.425
				c0,0.839,0.141,1.714,0.429,2.619c0.276,0.906,0.417,1.488,0.417,1.746c0,0.463-0.218,0.873-0.658,1.245
				c-0.432,0.375-0.928,0.562-1.479,0.562c-0.46,0-0.921-0.211-1.369-0.639C152.54,21.085,152.064,20.467,151.556,19.649z
				 M151.257,13.216c-0.658,0.237-1.619,0.484-2.885,0.756c-1.262,0.267-2.137,0.458-2.627,0.587
				c-0.479,0.128-0.946,0.369-1.384,0.731c-0.446,0.363-0.663,0.876-0.663,1.529c0,0.669,0.263,1.248,0.775,1.717
				c0.52,0.475,1.2,0.709,2.038,0.709c0.891,0,1.718-0.192,2.473-0.577c0.755-0.384,1.311-0.882,1.661-1.488
				c0.408-0.676,0.611-1.781,0.611-3.328V13.216L151.257,13.216z"/>
		</g>
	</g>
	<path fill="#42BC96" d="M-20.233-3.699c1.109-0.045,2.234,0.054,3.336,0.175c0.598,0.063,1.187,0.151,1.777,0.252
		c1.121,0.188,2.662,0.69-2.194-0.514c0.524,0.127,1.046,0.283,1.569,0.444c1.562,0.482,3.07,1.122,4.52,1.874
		C-3.103,2.733,0.602,11.004,1.128,19.726c0.032,0.478,4.796,0.651,4.82,1.073C5.329,10.611,0.338,1.944-9.558-1.8
		c-4.679-1.771-10.424-3.156-15.494-2.974c0.789-0.027,1.595,0.256,2.398,0.537C-21.847-3.956-21.035-3.672-20.233-3.699"/>
	<path fill="#E42A70" d="M-24.778,22.5c-0.152-4.146,0.947-8.489,2.657-12.24c4.025-8.808,12.75-12.998,22.21-13.553
		c-0.354,0.019-0.778-1.04-1.216-2.104C-1.564-6.46-2.009-7.525-2.395-7.5c-9.427,0.555-17.809,4.625-22.046,13.21
		c-1.866,3.781-2.978,8.346-2.822,12.585C-27.208,19.741-24.828,21.088-24.778,22.5"/>
	<path fill="#E5A440" d="M4.598,10.552c-0.718,0.756-1.525,1.431-2.341,2.079c-0.878,0.702-1.803,1.344-2.747,1.953
		c-1.062,0.683-4.042,1.99,0.267,0.082c-0.919,0.407-1.874,0.735-2.833,1.029c-8.782,2.747-17.346-0.58-24.001-6.355
		c-0.251-0.22-1.26,0.424-2.261,1.061c-0.987,0.63-1.96,1.26-2.183,1.066c7.895,6.854,17.655,9.408,27.453,5.06
		c4.647-2.06,9.555-4.368,13.09-8.106C8.003,9.516,5.657,9.433,4.598,10.552"/>
	<path fill="#88B780" d="M3.861,11.276c-0.512,0.477-1.058,0.92-1.603,1.354c-0.627,0.503-1.278,0.975-1.945,1.423
		c0.032,0.158,0.053,0.284,0.079,0.407c0,0,0.001,0,0.003-0.003c1.32-0.665,2.62-1.38,3.854-2.165
		C4.133,11.965,3.995,11.599,3.861,11.276"/>
	<path fill="#8B9F8E" d="M-15.732-3.691c-0.001,0.001-0.006,0.004-0.01,0.006c-0.122,0.072-0.241,0.146-0.356,0.216
		c-0.012,0.007-0.028,0.015-0.041,0.027l0.358,0.054c0.054,0.013,0.101,0.032,0.153,0.046c1.562,0.481,3.07,1.121,4.518,1.871
		c0.29,0.151,0.524,0.343,0.804,0.504C-9.836-1.164-9.36-1.35-8.878-1.524c-0.217-0.092-0.475-0.208-0.689-0.288
		C-11.428-2.52-13.637-3.182-15.732-3.691"/>
	<path fill="#E55F6C" d="M-26.148,10.096c-0.429,1.468-0.771,3.079-0.954,4.585l-0.003,0.029c0.961,0.59,1.943,1.125,2.942,1.594
		c0.001,0,0.003,0,0.003,0.001c0.284-1.257,0.72-2.714,1.161-3.922C-24.085,11.687-25.14,10.924-26.148,10.096"/>
</g>
</svg>
