<?xml version="1.0" encoding="UTF-8"?>
<!-- Generator: Adobe Illustrator 21.1.0, SVG Export Plug-In . SVG Version: 6.00 Build 0)  -->
<svg version="1.1" id="Capa_1" xmlns="http://www.w3.org/2000/svg" xmlns:xlink="http://www.w3.org/1999/xlink" x="0px" y="0px" viewBox="0 0 766.6 368.1" style="enable-background:new 0 0 766.6 368.1;" xml:space="preserve">
<style type="text/css">
	.st0{fill-rule:evenodd;clip-rule:evenodd;fill:#2A4B8F;}
	.st1{fill:#0069A3;}
	.st2{fill:#E5B136;}
	.st3{fill:#F5DA4B;}
	.st4{fill:#2A4B8F;}
	.st5{fill-rule:evenodd;clip-rule:evenodd;fill:#F5DA4B;}
	.st6{fill:none;stroke:#717171;stroke-width:0.3705;stroke-miterlimit:10;}
	.st7{fill:#3F70A1;}
	.st8{fill:none;stroke:#595857;stroke-width:0.3705;stroke-miterlimit:10;}
</style>
<g>
	<rect x="0.9" class="st0" width="392" height="368.1"/>
</g>
<g>
	<g id="XMLID_550_">
		<path class="st1" d="M472.4,142.4c0-1.8-0.8-3.1-2.5-3.8s-5.4-1.6-11.3-2.7c-9.3-1.7-15.4-3.8-18.3-6.3c-2.9-2.5-4.4-6.7-4.4-12.5    c0-6.6,2-11.4,6-14.4c4-3,10.5-4.5,19.3-4.5c8.5,0,15.4,0.8,20.7,2.5c1.7,0.6,3,1.2,3.7,2.1s1.1,2.2,1.1,4v4.9    c0,1.4-0.4,2.6-1.2,3.5c-0.8,0.9-2,1.3-3.4,1.3c-0.8,0-3.5-0.7-8-2c-4.5-1.3-8.8-2-12.7-2c-3.4,0-5.8,0.4-7,1.1    c-1.3,0.7-1.9,2-1.9,3.8c0,1.4,0.6,2.5,1.8,3.2c1.2,0.7,3.8,1.5,7.9,2.4c11.1,2.1,18.3,4.3,21.7,6.7c3.4,2.4,5.1,6.4,5.1,12.1    c0,7.1-2.1,12.3-6.4,15.6c-4.3,3.3-11.5,5-21.7,5c-8,0-14.9-0.8-20.6-2.3c-1.8-0.5-3.1-1.1-3.8-2c-0.7-0.9-1.1-2.3-1.1-4.2v-4.9    c0-1.3,0.4-2.5,1.3-3.4c0.9-0.9,2-1.4,3.5-1.4c0.8,0,3.6,0.7,8.5,2s9.3,2,13.4,2c4,0,6.8-0.5,8.3-1.4    C471.7,145.8,472.4,144.4,472.4,142.4z"/>
		<path class="st1" d="M509.9,180.7h-6.8c-1.4,0-2.6-0.5-3.5-1.4c-0.9-0.9-1.4-2.1-1.4-3.5v-60.1c0-6.5,2.1-11.1,6.2-13.7    c4.1-2.6,11.4-3.9,21.9-3.9h2.9c10.5,0,17.9,2.1,22.1,6.4s6.4,12.3,6.4,24.2v3c0,11.8-2.1,19.9-6.4,24.2s-11.7,6.4-22.1,6.4h-1.9    c-2.9,0-6.4-0.2-10.4-0.5c-0.9-0.1-1.4,0-1.7,0.4c-0.3,0.3-0.4,0.9-0.4,1.8v11.9c0,1.4-0.5,2.6-1.4,3.5    C512.4,180.2,511.3,180.7,509.9,180.7z M514.8,141.3c0,3.3,1,5.1,3.1,5.6c2.5,0.5,5.5,0.7,8.9,0.7h1.4c5.2,0,8.7-1.1,10.5-3.2    c1.7-2.1,2.6-6.4,2.6-12.7v-3c0-6.3-0.9-10.5-2.6-12.7c-1.7-2.2-5.2-3.3-10.5-3.3h-1.4c-3.3,0-6,0.4-8.2,1.1    c-2.5,0.7-3.8,2.7-3.8,6.1V141.3z"/>
		<path class="st1" d="M594.9,162.3c-10.6,0-18.1-2.2-22.4-6.5c-4.3-4.4-6.5-12.5-6.5-24.4v-2.4c0-11.8,2.1-19.9,6.4-24.3    c4.3-4.4,11.7-6.5,22.1-6.5h1.2c10.4,0,17.7,1.8,22,5.3c4.3,3.5,6.4,10,6.4,19.5v3c0,3.5-0.8,6-2.4,7.4c-1.6,1.5-4.1,2.2-7.4,2.2    h-29.8c-1.4,0-2.1,0.7-2.1,2.1c0,4,0.9,6.7,2.7,8.3s5.1,2.3,9.8,2.3h1.8c3.9,0,8.2-0.5,13.1-1.5c4.8-1,7.5-1.5,7.9-1.5    c2.9,0,4.4,1.5,4.4,4.5v4.5c0,1.8-0.4,3.1-1.2,3.9c-0.8,0.8-2.1,1.4-3.9,1.9c-6.4,1.5-13.2,2.3-20.2,2.3H594.9z M582.5,122.6    c0,0.8,0.1,1.3,0.4,1.6c0.3,0.3,0.8,0.4,1.6,0.4h21.3c1.4,0,2.1-0.7,2.1-2c0-4.5-0.8-7.5-2.3-9c-1.5-1.5-4.8-2.3-9.7-2.3h-1.8    c-4.4,0-7.5,0.8-9.2,2.4C583.3,115.4,582.5,118.3,582.5,122.6z"/>
		<path class="st2" d="M661.9,181.3c-7.7,0-14.5-0.7-20.3-2.1c-1.7-0.5-3-1.2-3.9-2s-1.2-2.2-1.2-4v-4.4c0-3,1.5-4.5,4.4-4.5    c0.4,0,3,0.5,7.7,1.6c4.8,1.1,9.2,1.6,13.2,1.6h0.8c4.6,0,7.9-0.5,9.8-1.6c1.9-1.1,3-3.1,3.2-6c0-1.2-0.2-2-0.7-2.3    c-0.4-0.4-1.2-0.5-2.4-0.4c-3.5,0.5-6.7,0.7-9.8,0.7H661c-10.5,0-17.9-2-22.1-6c-4.3-4-6.4-11.4-6.4-22.3v-2.3    c0-11.3,2.1-18.9,6.4-23c4.3-4.1,11.7-6.1,22.1-6.1h3.6c10.3,0.1,17.5,1.3,21.4,3.7c4,2.4,6,6.5,6,12.3v44.2    c0,8.6-2.2,14.6-6.5,18c-4.4,3.3-11.4,5-21.2,5H661.9z M672.5,142.3c2.1-0.6,3.1-2.3,3.1-4.9v-17c0-2.1-0.3-3.6-0.9-4.5    c-0.6-1-1.7-1.7-3.3-2.1c-2.3-0.6-5-1-8.1-1h-1.4c-5.2,0-8.7,1-10.4,2.9c-1.7,1.9-2.5,5.9-2.5,11.7v1.9c0,5.6,0.8,9.3,2.5,11.1    c1.7,1.9,5.1,2.8,10.4,2.8h1.4C667.3,143.2,670.3,142.9,672.5,142.3z"/>
		<path class="st2" d="M731.5,162.3h-1c-10.6,0-18.1-2.1-22.6-6.4s-6.6-12.3-6.6-24.2v-3c0-11.8,2.1-19.9,6.4-24.2    s11.7-6.4,22.1-6.4h1.5c7,0,13,0.8,18,2.4c1.7,0.6,3,1.3,3.7,2.1c0.7,0.9,1.1,2.2,1.1,3.9v5.6c0,2.8-1.4,4.2-4.3,4.2    c-0.6,0-2.8-0.6-6.8-1.8c-4-1.2-7.9-1.8-11.7-1.8h-1.2c-5.1,0-8.4,1.1-10,3.3c-1.6,2.2-2.4,6.5-2.4,13v2.4    c0,6.3,0.8,10.6,2.5,12.9c1.7,2.2,5,3.3,9.9,3.3h1.2c3.9,0,7.8-0.6,11.7-1.8c3.9-1.2,6.2-1.8,6.7-1.8c2.9,0,4.3,1.5,4.3,4.4v5.7    c0,3-1.5,5-4.5,5.8C744.2,161.5,738.2,162.3,731.5,162.3z"/>
	</g>
</g>
<g>
	<g>
		<g>
			<g>
				<g>
					<path class="st3" d="M190.9,75.8V57.3c-10.4-5.6-25.2,8.8-14.4,19.7C180.9,76.4,185.7,75.9,190.9,75.8z M159.5,80.7       c1.5-0.5,3.1-0.9,4.7-1.3c-3.8-6.2-4-12.8-1.8-18.6c-7.3,1.7-13.1,10.6-5.7,17.9c0,0,0.7,0.7,1.3,1.1       C158.4,80.1,159.1,80.5,159.5,80.7z M217.2,77c10.5-10.8-4.3-25.3-14.6-19.7v18.5C207.9,76,212.7,76.4,217.2,77z M234.3,80.8       c0.4-0.3,0.9-0.6,1.2-0.9c0.5-0.4,1.3-1.2,1.3-1.2c7.4-7.3,1.6-16.2-5.7-17.9c2.2,5.8,2,12.3-1.8,18.6       C231.1,79.8,232.7,80.3,234.3,80.8z M204.3,24.5v5h-5.1v5.1c3.6,1.1,6.3,4.3,6.3,8.3c0,0.4,0,0.9-0.1,1.3       c6.8-0.7,13.5,1.9,18.6,6.3c18-4.5,37.3,18.7,20.2,35.6c0,0-1.2,1.2-2.1,1.9c-0.7,0.6-1.8,1.4-2.2,1.7l-3,7       c-9.6-3.2-22.1-6.2-40.2-6.3c-17.9,0-31.9,3.2-40.3,6.2l-2.8-7c-0.3-0.2-1.6-1.1-2.4-1.8c-0.8-0.6-1.9-1.7-1.9-1.7       c-17.1-16.9,2.2-40,20.2-35.6c5.1-4.4,11.8-7,18.6-6.3c-0.1-0.4-0.1-0.9-0.1-1.3c0-3.9,2.6-7.2,6.2-8.3v-5.2h-5v-5h5v-5.1h5       v5.1H204.3z"/>
				</g>
			</g>
		</g>
		<g>
			<g>
				<g>
					<g>
						<path class="st3" d="M145.7,172.7c0-0.5,0-72.3,0-72.3h102.1c0,0,0,71.3,0,72.3c0,28.2-22.8,51.1-51,51.1        C168.6,223.9,145.7,201,145.7,172.7z"/>
						<path class="st3" d="M196.8,224.7c-28.6,0-51.9-23.3-51.9-51.9V99.7h103.7v73.1C248.6,201.4,225.4,224.7,196.8,224.7z         M146.5,101.3v71.5c0,27.8,22.6,50.3,50.3,50.3c27.7,0,50.2-22.6,50.2-50.3v-71.5H146.5z"/>
					</g>
				</g>
			</g>
			<g>
				<g>
					<g>
						<path class="st3" d="M165.2,120.1h30.6h1.7h30.9l0,52.5c0,17.4-14.1,31.7-31.6,31.7c-17.4,0-31.6-14.1-31.6-31.6v-0.2        L165.2,120.1z"/>
					</g>
				</g>
			</g>
			<g>
				<g>
					<g>
						<path class="st4" d="M197.5,158h-1.7H167v14.7v0.2c0,16.5,13.4,29.9,29.9,29.9c16.5,0,29.9-13.5,29.9-30V158H197.5z"/>
					</g>
				</g>
			</g>
			<g>
				<g>
					<g>
						<g>
							<path class="st5" d="M202.1,176.3l1.4-0.1l0.5-0.7l1.2-0.2v-1.3l1.7,1.9v4.7l6.7,6.6c0.4,0.3,0.7,0.4,1.2,0.5         c0.6,0.1,0.7,0,1.3-0.2c0.2,0,0.2,0.3,0.1,0.4c-0.2,0.3-0.5,0.4-0.9,0.6c-0.5,0.2-0.9,0.2-1.3,0.1c-0.3-0.1-0.5-0.2-0.8-0.4         v2c-0.4,0.8-0.6,1.3-0.6,2.1c0,0.9,0.1,1.4,0.4,2.2l-1.8,2.3c-0.2-0.1-0.3-0.1-0.5,0c-0.2,0.1-0.3,0.2-0.4,0.3l-0.8-0.7         c0.1-0.2,0.2-0.3,0.4-0.4c0.2-0.1,0.4-0.2,0.6,0.2l1.2-1.9l-1.4-3.4l-0.1,1.5l-2.7,1.5c-0.1-0.1-0.3-0.2-0.5-0.1         c-0.2,0.1-0.3,0.2-0.3,0.4l-0.9-0.8c0-0.2,0.2-0.4,0.4-0.5c0.3-0.1,0.6-0.1,0.7,0.2l1.9-1.3c-0.3-0.8-0.6-1.4-0.8-2.1         c-0.1-0.6-0.1-1.1-0.1-1.6c-0.8-0.2-1.2-0.3-1.9-0.6c-0.3-0.1-0.3-0.1-0.6-0.2l0.2,0.4l-1.1,3.6c-0.2,0-0.3,0-0.5,0.1         c-0.2,0.1-0.4,0.2-0.5,0.4l-1-0.8c0-0.3,0.1-0.4,0.4-0.5c0.2,0,0.4,0,0.5,0.2c0.1,0,0.1,0,0.2,0l0.1-4.4         c-0.3-0.2-0.4-0.3-0.7-0.6c-0.2-0.3-0.3-0.4-0.4-0.7l-1.9-0.2l-0.3,0.3l0.3,0.5l0.5,0l0.2,1.2H201l-1.4-1.7l0.8-1.6l2-0.2         c-0.1-0.8,0-1.2,0.1-2c0.3-1.2,1.2-1.7,1.5-2.8l-1.7-0.8L202.1,176.3z"/>
						</g>
					</g>
				</g>
				<g>
					<g>
						<g>
							<path class="st5" d="M196.6,159.4c0,0-2.2,1.3-1.9,5.7c0,0-2.4-3.4-7.6-2.6l4.1,3.5c-5.6-0.7-7.7,2.4-7.7,2.4         c6-0.8,8.9,1.1,8.9,1.1c-6.1-0.5-6.3,3.8-6.3,3.8c4.4-2.8,8.7-0.2,8.7-0.2l0,14.5h3.5l0-14.5c0,0,4.3-2.6,8.7,0.2         c0,0-0.2-4.3-6.3-3.8c0,0,3-1.9,8.9-1.1c0,0-2.1-3.1-7.7-2.4l4.1-3.5c-5.1-0.8-7.6,2.6-7.6,2.6c0.3-4.4-1.9-5.7-1.9-5.7         H196.6z"/>
						</g>
					</g>
				</g>
				<g>
					<g>
						<g>
							<path class="st5" d="M191.3,176.3l-1.4-0.1l-0.5-0.7l-1.2-0.2v-1.3l-1.7,1.9v4.7l-6.7,6.6c-0.4,0.3-0.7,0.4-1.2,0.5         c-0.6,0.1-0.7,0-1.2-0.2c-0.2,0-0.2,0.3-0.1,0.4c0.2,0.3,0.5,0.4,0.9,0.6c0.5,0.2,0.9,0.2,1.3,0.1c0.3-0.1,0.5-0.2,0.8-0.4v2         c0.4,0.8,0.6,1.3,0.6,2.1c0,0.9-0.1,1.4-0.4,2.2l1.8,2.3c0.2-0.1,0.3-0.1,0.5,0c0.2,0.1,0.3,0.2,0.4,0.3l0.8-0.7         c-0.1-0.2-0.2-0.3-0.4-0.4c-0.2-0.1-0.4-0.2-0.6,0.2l-1.2-1.9l1.4-3.4l0.1,1.5l2.7,1.5c0.1-0.1,0.3-0.2,0.5-0.1         c0.2,0.1,0.3,0.2,0.3,0.4l0.9-0.8c0-0.2-0.2-0.4-0.4-0.5c-0.3-0.1-0.6-0.1-0.7,0.2l-1.9-1.3c0.3-0.8,0.6-1.4,0.7-2.1         c0.1-0.6,0.1-1.1,0.1-1.6c0.8-0.2,1.2-0.3,1.9-0.6c0.3-0.1,0.3-0.1,0.5-0.2l-0.2,0.4l1.1,3.6c0.2,0,0.3,0,0.5,0.1         c0.2,0.1,0.4,0.2,0.5,0.4l1-0.8c0-0.3-0.1-0.4-0.4-0.5c-0.2,0-0.4,0-0.5,0.2c-0.1,0-0.1,0-0.2,0l-0.1-4.4         c0.3-0.2,0.4-0.3,0.7-0.6c0.2-0.3,0.3-0.4,0.4-0.7l1.9-0.2l0.3,0.3l-0.3,0.5l-0.5,0l-0.2,1.2h0.7l1.4-1.7l-0.8-1.6l-2-0.2         c0.1-0.8,0-1.2-0.1-2c-0.3-1.2-1.2-1.7-1.5-2.8l1.7-0.8L191.3,176.3z"/>
						</g>
					</g>
				</g>
				<g>
					<g>
						<g>
							<polygon class="st3" points="211.3,197.8 182.3,197.8 195,187.6 198.5,187.6        "/>
						</g>
					</g>
				</g>
			</g>
			<g>
				<g>
					<g>
						<g>
							<polygon class="st4" points="197.7,121.9 226.7,121.9 226.7,156.2 197.7,156.2 197.7,121.9        "/>
							<path class="st4" d="M212.2,139.1"/>
						</g>
					</g>
				</g>
			</g>
			<g>
				<g>
					<g>
						<g>
							<polygon class="st4" points="167,121.9 196,121.9 196,156.2 167,156.2 167,121.9        "/>
							<path class="st4" d="M181.5,139.1"/>
						</g>
					</g>
				</g>
			</g>
			<g>
				<g>
					<g>
						<g>
							<g>
								
									<rect x="188.2" y="213.5" transform="matrix(0.7092 -0.7051 0.7051 0.7092 -93.8001 200.8538)" class="st4" width="16.7" height="1.3"/>
							</g>
						</g>
					</g>
					<g>
						<g>
							<g>
								<polygon class="st4" points="198.8,208.6 202.1,212 201.2,212.9 197.9,209.5         "/>
							</g>
						</g>
					</g>
				</g>
				<g>
					<g>
						<g>
							<g>
								<g>
									<polygon class="st4" points="191.5,207.8 203.4,219.6 202.5,220.5 190.6,208.7 191.5,207.8          "/>
									<path class="st3" d="M197,214.1"/>
								</g>
							</g>
						</g>
					</g>
					<g>
						<g>
							<g>
								
									<rect x="191.2" y="210.1" transform="matrix(0.6983 -0.7158 0.7158 0.6983 -92.4605 202.1308)" class="st4" width="4.7" height="1.3"/>
							</g>
						</g>
					</g>
				</g>
			</g>
			<g>
				<g>
					<g>
						<g>
							<polygon class="st5" points="181.5,126.1 178.3,126.1 178.3,129.5 174.8,129.5 174.8,127.4 168.3,127.4 171.5,135.5          173.8,135.5 168.9,153.7 177.2,153.7 178.3,145.2 181.5,145.2 184.6,145.2 185.7,153.7 194,153.7 189.1,135.5 191.4,135.5          194.9,127.4 188.2,127.4 188.2,129.5 184.6,129.5 184.6,126.1        "/>
						</g>
					</g>
				</g>
			</g>
			<g>
				<g>
					<g>
						<g>
							<path class="st5" d="M204.4,135.8h2.1c0-0.9-0.1-1.5-0.5-2.3c-0.4-0.8-0.8-1.1-1.5-1.6c-0.3-0.2-0.5-0.3-0.9-0.2         c-0.4,0.1-0.7,0.5-0.6,1c-0.3-0.3-0.5-0.7-0.4-1.3c0.1-0.4,0.3-0.6,0.7-0.8c-0.1-0.2-0.3-0.3-0.6-0.3c-0.2,0-0.4,0.1-0.5,0.4         c-0.2-0.5-0.1-0.8,0.2-1.2c0.3-0.4,0.6-0.6,1.1-0.6c0-0.2-0.1-0.3-0.3-0.5c-0.2-0.2-0.4-0.2-0.6-0.1c0.5-0.6,1.3-0.8,2.1-0.6         c1.3,0.4,1.3,2.4,1.2,2.8l3,3.3l3.1-2.7l-0.4-0.6c-0.3,0.2-0.4,0.2-0.7,0.3c-0.3,0.1-0.5,0.1-0.9,0.1v0.7h-1v-1.7h-1.8v-2         l0.8,0v1.1h1v-2h1.2l0.6-0.8h1.5c0,0,0.2-0.3,0.3-0.5c0.1-0.3,0.1-0.8,0.1-0.8l1.7,0.9c0,0,0.2,0.8,0.5,1.2         c0.6,0.8,1.4,0.6,2.2,1.2c0.7,0.6,1.5,1.8,1.5,1.8H217c0,0,0.6,0.3,0.9,0.7c0.3,0.3,0.5,0.9,0.5,0.9h-1.3c0,0,0,1.9,0.4,3         c0.4,1,1.6,2.4,1.6,2.4h-2c0,0,0.1,0.6,0.2,0.9c0.2,0.5,0.9,1,0.9,1h-2.5v2.5c0,0,0.8,0.3,1.1,0.8c0.4,0.6,0.3,1.5,0.3,1.5         c0.3,0.4,0.7,0.5,1.2,0.5c0.7-0.1,1.3-0.5,1.3-1.2v-10c0-1.5,1.3-2.7,2.7-2.6c1.4,0.1,2.4,1.2,2.4,2.6         c0.4,0.5,0.6,0.9,0.5,1.6c-0.1,1.3-1.8,2.2-3,1.6c0.5-0.2,0.8-0.5,1-1c0.2-0.6-0.6-0.9-0.4-1.5c0.1-0.4,0.3-0.7,0.6-0.9         c-0.1-0.6-0.5-1-1.1-1.1c-0.8-0.1-1.5,0.5-1.5,1.2v10.1c0,0.9-0.6,1.8-1.5,2.3c-0.7,0.4-1.6,0.2-2.3,0c0,0.9,0.1,1.5,0.7,2.2         c0.6,0.7,1.2,1,2,1.3v5.6c-0.4,0.1-0.6,0.3-0.7,0.7c-0.1,0.5,0.1,1,0.6,1.2c-0.5,0.1-1,0.1-1.6-0.3c-0.4-0.3-0.5-0.7-0.4-1.2         c-0.3,0-0.5,0.1-0.7,0.4c-0.1,0.3-0.1,0.5,0,0.8c-0.6-0.1-0.9-0.4-1.2-0.9c-0.2-0.5-0.2-1,0.1-1.5c-0.2-0.1-0.4-0.1-0.7,0         c-0.3,0.1-0.4,0.3-0.5,0.6c-0.3-0.9-0.1-1.8,0.7-2.4c0.8-0.5,2-0.4,2.4,0l-0.3-1.6c-0.7-0.1-3.6-0.4-4.7-1.3         c-0.5-0.4-0.4-1-0.4-1.6c-0.8-0.1-1.6,0-2.3,0.6c-0.5,0.5-0.8,0.9-0.9,1.6l0,3.6c-0.4,0.1-0.6,0.4-0.7,0.8         c-0.1,0.5,0.1,1,0.6,1.2c-0.5,0.1-1,0.1-1.6-0.3c-0.4-0.3-0.5-0.7-0.4-1.2c-0.3,0-0.5,0.1-0.7,0.4c-0.1,0.3-0.1,0.5,0,0.8         c-0.6-0.1-0.9-0.4-1.2-0.9c-0.2-0.5-0.2-1,0.1-1.5c-0.2-0.1-0.4-0.1-0.7,0c-0.3,0.1-0.4,0.3-0.5,0.6         c-0.3-0.9-0.1-1.8,0.7-2.4c0.7-0.5,2-0.4,2.3-0.1v-3.8c-0.3,0-0.5-0.1-0.7-0.3c-0.3-0.2-0.4-0.3-0.6-0.6l1.3-1         c0,0-0.5-0.1-0.7-0.4c-0.3-0.5-0.3-1-0.3-1h5.7v-0.4c-1.2-0.6-1.6-0.9-2.6-1.8c-0.6-0.5-1.2-2.3-1.3-2.8         c-0.3,0.1-0.4,0.2-0.7,0.4c-0.3,0.2-0.4,0.4-0.5,0.7c-0.9-0.8-1.9-1.6-2.6-1.8c-0.5-0.2-0.9-0.1-1.5,0c0-0.1,0-0.2,0-0.3         c-0.3-0.2-0.4-0.3-0.7-0.2c-0.4,0.1-0.6,0.4-0.5,0.8c-0.3-0.3-0.5-0.7-0.4-1.2c0.1-0.4,0.3-0.6,0.7-0.8         c-0.1-0.2-0.3-0.3-0.6-0.3c-0.2,0-0.4,0.1-0.5,0.4c-0.2-0.5-0.1-0.8,0.2-1.2c0.3-0.4,0.6-0.6,1.1-0.6c0-0.2-0.1-0.3-0.3-0.5         c-0.2-0.1-0.4-0.2-0.6-0.1c0.5-0.6,1.3-0.8,2.1-0.6C204.5,133.3,204.4,135.4,204.4,135.8z"/>
						</g>
					</g>
				</g>
				<g>
					<g>
						<g>
							<g>
								<path class="st5" d="M209.9,123.8c0,0,1.6-0.4,2.6-0.4c1.1,0,2.9,0.4,2.9,0.4v1c0,0-1.7-0.4-2.9-0.4c-1,0-2.6,0.4-2.6,0.4          V123.8z"/>
							</g>
						</g>
					</g>
					<g>
						<g>
							<g>
								<circle class="st3" cx="210.4" cy="122.7" r="0.6"/>
							</g>
						</g>
					</g>
					<g>
						<g>
							<g>
								<circle class="st3" cx="212.5" cy="122.4" r="0.6"/>
							</g>
						</g>
					</g>
					<g>
						<g>
							<g>
								<circle class="st3" cx="214.5" cy="122.7" r="0.6"/>
							</g>
						</g>
					</g>
				</g>
			</g>
			<g>
				<g>
					<g>
						<g>
							<g>
								
									<rect x="147.2" y="109.4" transform="matrix(0.7092 -0.7051 0.7051 0.7092 -32.3016 141.6958)" class="st4" width="16.7" height="1.3"/>
							</g>
						</g>
					</g>
					<g>
						<g>
							<g>
								<polygon class="st4" points="157.8,104.5 161.2,107.9 160.2,108.8 156.9,105.4         "/>
							</g>
						</g>
					</g>
				</g>
				<g>
					<g>
						<g>
							<g>
								
									<rect x="155.4" y="101.7" transform="matrix(0.7051 -0.7091 0.7091 0.7051 -31.9839 143.0867)" class="st4" width="1.3" height="16.7"/>
							</g>
						</g>
					</g>
					<g>
						<g>
							<g>
								
									<rect x="150.2" y="106" transform="matrix(0.6982 -0.7159 0.7159 0.6982 -30.2838 141.44)" class="st4" width="4.7" height="1.3"/>
							</g>
						</g>
					</g>
				</g>
			</g>
			<g>
				<g>
					<g>
						<g>
							<g>
								
									<rect x="229.7" y="109.4" transform="matrix(0.7092 -0.705 0.705 0.7092 -8.3557 199.868)" class="st4" width="16.7" height="1.3"/>
							</g>
						</g>
					</g>
					<g>
						<g>
							<g>
								
									<rect x="240.9" y="104.3" transform="matrix(0.7155 -0.6986 0.6986 0.7155 -5.8251 199.093)" class="st4" width="1.3" height="4.7"/>
							</g>
						</g>
					</g>
				</g>
				<g>
					<g>
						<g>
							<g>
								<polygon class="st4" points="244,116.4 232.2,104.6 233.1,103.7 244.9,115.5         "/>
							</g>
						</g>
					</g>
					<g>
						<g>
							<g>
								
									<rect x="232.7" y="106.1" transform="matrix(0.6991 -0.715 0.715 0.6991 -5.5515 200.2056)" class="st4" width="4.7" height="1.3"/>
							</g>
						</g>
					</g>
				</g>
			</g>
			<g>
				<g>
					<g>
						<g>
							<g>
								
									<rect x="147.2" y="160.2" transform="matrix(0.7091 -0.7051 0.7051 0.7091 -68.1304 156.5005)" class="st4" width="16.7" height="1.3"/>
							</g>
						</g>
					</g>
					<g>
						<g>
							<g>
								
									<rect x="158.4" y="155.1" transform="matrix(0.7159 -0.6982 0.6982 0.7159 -64.7529 155.7702)" class="st4" width="1.3" height="4.7"/>
							</g>
						</g>
					</g>
				</g>
				<g>
					<g>
						<g>
							<g>
								
									<rect x="155.4" y="152.5" transform="matrix(0.7051 -0.7091 0.7091 0.7051 -68.0162 158.0939)" class="st4" width="1.3" height="16.7"/>
							</g>
						</g>
					</g>
					<g>
						<g>
							<g>
								
									<rect x="150.2" y="156.8" transform="matrix(0.6984 -0.7157 0.7157 0.6984 -66.6631 156.7119)" class="st4" width="4.7" height="1.3"/>
							</g>
						</g>
					</g>
				</g>
			</g>
			<g>
				<g>
					<g>
						<g>
							<g>
								
									<rect x="230.1" y="160.2" transform="matrix(0.7091 -0.7051 0.7051 0.7091 -44.0198 214.9307)" class="st4" width="16.7" height="1.3"/>
							</g>
						</g>
					</g>
					<g>
						<g>
							<g>
								<polygon class="st4" points="240.7,155.3 244,158.7 243.1,159.6 239.8,156.2         "/>
							</g>
						</g>
					</g>
				</g>
				<g>
					<g>
						<g>
							<g>
								
									<rect x="238.3" y="152.5" transform="matrix(0.7049 -0.7093 0.7093 0.7049 -43.5582 216.9339)" class="st4" width="1.3" height="16.7"/>
							</g>
						</g>
					</g>
					<g>
						<g>
							<g>
								
									<rect x="233.1" y="156.8" transform="matrix(0.6984 -0.7157 0.7157 0.6984 -41.6651 216.034)" class="st4" width="4.7" height="1.3"/>
							</g>
						</g>
					</g>
				</g>
			</g>
		</g>
	</g>
	<g>
		<path class="st3" d="M89.2,285.5c-1.6,0.8-5.2,1.6-9.8,1.6c-13.2,0-20-8.2-20-19.1c0-13,9.3-20.3,20.9-20.3c4.5,0,7.9,0.9,9.4,1.7    l-1.8,6.9c-1.8-0.7-4.2-1.4-7.3-1.4c-6.9,0-12.2,4.1-12.2,12.6c0,7.7,4.5,12.5,12.2,12.5c2.6,0,5.5-0.6,7.2-1.2L89.2,285.5z"/>
		<path class="st3" d="M109.7,286.5l-0.5-2.8h-0.2c-1.8,2.2-4.6,3.4-7.9,3.4c-5.6,0-9-4.1-9-8.5c0-7.2,6.5-10.7,16.3-10.6v-0.4    c0-1.5-0.8-3.6-5-3.6c-2.8,0-5.8,1-7.7,2.1l-1.6-5.6c1.9-1.1,5.7-2.4,10.8-2.4c9.2,0,12.2,5.4,12.2,12v9.6c0,2.7,0.1,5.2,0.4,6.7    H109.7z M108.7,273.4c-4.5-0.1-8,1-8,4.4c0,2.2,1.5,3.3,3.4,3.3c2.2,0,3.9-1.4,4.5-3.2c0.1-0.5,0.2-1,0.2-1.5V273.4z"/>
		<path class="st3" d="M123.7,286.5c0.1-1.8,0.2-5.2,0.2-8.3v-32h8.6v15.8h0.1c1.6-2.4,4.5-3.9,8.4-3.9c6.6,0,11.5,5.5,11.4,14    c0,10-6.3,15-12.7,15c-3.2,0-6.3-1.2-8.3-4.5h-0.1l-0.3,3.9H123.7z M132.5,274.7c0,0.6,0.1,1.1,0.2,1.5c0.6,2.3,2.6,4.1,5,4.1    c3.7,0,6-2.8,6-7.8c0-4.3-1.9-7.7-6-7.7c-2.3,0-4.5,1.8-5,4.3c-0.1,0.5-0.2,1-0.2,1.6V274.7z"/>
		<path class="st3" d="M166.7,251.1c0,2.4-1.8,4.3-4.6,4.3c-2.7,0-4.5-1.9-4.5-4.3c-0.1-2.5,1.8-4.4,4.5-4.4    C164.9,246.7,166.6,248.6,166.7,251.1z M157.8,286.5v-27.7h8.6v27.7H157.8z"/>
		<path class="st3" d="M173.3,246.3h8.6v40.2h-8.6V246.3z"/>
		<path class="st3" d="M215.8,246.3v32c0,3.1,0.1,6.4,0.2,8.3h-7.7l-0.4-4.1h-0.1c-1.8,3.1-5.1,4.7-8.7,4.7    c-6.6,0-11.8-5.6-11.8-14.2c-0.1-9.4,5.8-14.7,12.4-14.7c3.4,0,6.1,1.2,7.3,3.1h0.1v-15H215.8z M207.2,270.6    c0-0.5-0.1-1.1-0.1-1.5c-0.5-2.3-2.4-4.3-5-4.3c-3.9,0-6,3.5-6,7.9c0,4.7,2.3,7.7,5.9,7.7c2.5,0,4.5-1.7,5-4.1    c0.2-0.6,0.2-1.2,0.2-2V270.6z"/>
		<path class="st3" d="M250.1,272.4c0,10.1-7.2,14.8-14.6,14.8c-8.1,0-14.3-5.3-14.3-14.3c0-9,5.9-14.7,14.8-14.7    C244.4,258.2,250.1,264,250.1,272.4z M230,272.7c0,4.8,2,8.3,5.7,8.3c3.3,0,5.5-3.3,5.5-8.3c0-4.1-1.6-8.3-5.5-8.3    C231.5,264.3,230,268.6,230,272.7z"/>
		<path class="st3" d="M293.7,246.3v32c0,3.1,0.1,6.4,0.2,8.3h-7.7l-0.4-4.1h-0.1c-1.8,3.1-5.1,4.7-8.7,4.7    c-6.6,0-11.8-5.6-11.8-14.2c-0.1-9.4,5.8-14.7,12.4-14.7c3.4,0,6.1,1.2,7.3,3.1h0.1v-15H293.7z M285.1,270.6    c0-0.5-0.1-1.1-0.1-1.5c-0.5-2.3-2.4-4.3-5-4.3c-3.9,0-6,3.5-6,7.9c0,4.7,2.3,7.7,5.9,7.7c2.5,0,4.5-1.7,5-4.1    c0.2-0.6,0.2-1.2,0.2-2V270.6z"/>
		<path class="st3" d="M307.2,275.4c0.3,3.6,3.8,5.3,7.8,5.3c2.9,0,5.3-0.4,7.7-1.1l1.1,5.8c-2.8,1.1-6.3,1.7-10,1.7    c-9.4,0-14.8-5.4-14.8-14.1c0-7,4.4-14.8,14-14.8c9,0,12.4,7,12.4,13.8c0,1.5-0.2,2.8-0.3,3.4H307.2z M317.4,269.5    c0-2.1-0.9-5.6-4.9-5.6c-3.6,0-5.1,3.3-5.3,5.6H317.4z"/>
		<path class="st3" d="M69.9,332.7c-2.7,0.9-7.7,2.2-12.8,2.2c-7,0-12-1.8-15.5-5.2c-3.5-3.3-5.4-8.3-5.4-13.9    c0.1-12.7,9.3-20,21.8-20c4.9,0,8.7,1,10.6,1.9l-1.8,6.9c-2.1-0.9-4.7-1.6-8.9-1.6c-7.2,0-12.6,4.1-12.6,12.4    c0,7.9,4.9,12.5,12,12.5c2,0,3.6-0.2,4.3-0.6v-8h-5.9v-6.7h14.2V332.7z"/>
		<path class="st3" d="M76.5,315.9c0-4.1-0.1-6.7-0.2-9.1h7.4l0.3,5.1h0.2c1.4-4,4.8-5.7,7.5-5.7c0.8,0,1.2,0,1.8,0.1v8.1    c-0.6-0.1-1.4-0.2-2.3-0.2c-3.2,0-5.3,1.7-5.9,4.4c-0.1,0.6-0.2,1.2-0.2,1.9v14.1h-8.6V315.9z"/>
		<path class="st3" d="M113.1,334.5l-0.5-2.8h-0.2c-1.8,2.2-4.6,3.4-7.9,3.4c-5.6,0-9-4.1-9-8.5c0-7.2,6.5-10.7,16.3-10.6v-0.4    c0-1.5-0.8-3.6-5-3.6c-2.8,0-5.8,1-7.7,2.1l-1.6-5.6c1.9-1.1,5.7-2.4,10.8-2.4c9.2,0,12.2,5.4,12.2,12v9.6c0,2.7,0.1,5.2,0.4,6.7    H113.1z M112.1,321.4c-4.5-0.1-8,1-8,4.4c0,2.2,1.5,3.3,3.4,3.3c2.2,0,3.9-1.4,4.5-3.2c0.1-0.5,0.2-1,0.2-1.5V321.4z"/>
		<path class="st3" d="M127.3,315.6c0-3.5-0.1-6.4-0.2-8.8h7.5l0.4,3.8h0.2c1.1-1.8,4-4.4,8.6-4.4c5.7,0,9.9,3.7,9.9,11.9v16.4H145    v-15.4c0-3.6-1.2-6-4.4-6c-2.4,0-3.8,1.6-4.4,3.2c-0.2,0.5-0.3,1.4-0.3,2.2v16h-8.6V315.6z"/>
		<path class="st3" d="M200.3,333.4c-1.6,0.8-5.2,1.6-9.8,1.6c-13.2,0-20-8.2-20-19.1c0-13,9.3-20.3,20.9-20.3    c4.5,0,7.9,0.9,9.4,1.7l-1.8,6.9c-1.8-0.7-4.2-1.4-7.3-1.4c-6.9,0-12.2,4.1-12.2,12.6c0,7.7,4.5,12.5,12.2,12.5    c2.6,0,5.5-0.6,7.2-1.2L200.3,333.4z"/>
		<path class="st3" d="M220.9,334.5l-0.5-2.8h-0.2c-1.8,2.2-4.6,3.4-7.9,3.4c-5.6,0-9-4.1-9-8.5c0-7.2,6.5-10.7,16.3-10.6v-0.4    c0-1.5-0.8-3.6-5-3.6c-2.8,0-5.8,1-7.7,2.1l-1.6-5.6c1.9-1.1,5.7-2.4,10.8-2.4c9.2,0,12.2,5.4,12.2,12v9.6c0,2.7,0.1,5.2,0.4,6.7    H220.9z M219.8,321.4c-4.5-0.1-8,1-8,4.4c0,2.2,1.5,3.3,3.4,3.3c2.2,0,3.9-1.4,4.5-3.2c0.1-0.5,0.2-1,0.2-1.5V321.4z"/>
		<path class="st3" d="M235,315.6c0-3.5-0.1-6.4-0.2-8.8h7.5l0.4,3.8h0.2c1.1-1.8,4-4.4,8.6-4.4c5.7,0,9.9,3.7,9.9,11.9v16.4h-8.6    v-15.4c0-3.6-1.2-6-4.4-6c-2.4,0-3.8,1.6-4.4,3.2c-0.2,0.5-0.3,1.4-0.3,2.2v16H235V315.6z"/>
		<path class="st3" d="M284,334.5l-0.5-2.8h-0.2c-1.8,2.2-4.6,3.4-7.9,3.4c-5.6,0-9-4.1-9-8.5c0-7.2,6.5-10.7,16.3-10.6v-0.4    c0-1.5-0.8-3.6-5-3.6c-2.8,0-5.8,1-7.6,2.1l-1.6-5.6c1.9-1.1,5.7-2.4,10.8-2.4c9.2,0,12.2,5.4,12.2,12v9.6c0,2.7,0.1,5.2,0.4,6.7    H284z M283,321.4c-4.5-0.1-8,1-8,4.4c0,2.2,1.5,3.3,3.4,3.3c2.2,0,3.9-1.4,4.5-3.2c0.1-0.5,0.2-1,0.2-1.5V321.4z"/>
		<path class="st3" d="M298.2,315.9c0-4.1-0.1-6.7-0.2-9.1h7.4l0.3,5.1h0.2c1.4-4,4.8-5.7,7.5-5.7c0.8,0,1.2,0,1.8,0.1v8.1    c-0.6-0.1-1.4-0.2-2.3-0.2c-3.2,0-5.3,1.7-5.9,4.4c-0.1,0.6-0.2,1.2-0.2,1.9v14.1h-8.6V315.9z"/>
		<path class="st3" d="M328.6,299.1c0,2.4-1.8,4.3-4.6,4.3c-2.7,0-4.5-1.9-4.5-4.3c-0.1-2.5,1.8-4.4,4.5-4.4    S328.5,296.6,328.6,299.1z M319.7,334.5v-27.7h8.6v27.7H319.7z"/>
		<path class="st3" d="M351,334.5l-0.5-2.8h-0.2c-1.8,2.2-4.6,3.4-7.9,3.4c-5.6,0-9-4.1-9-8.5c0-7.2,6.5-10.7,16.3-10.6v-0.4    c0-1.5-0.8-3.6-5-3.6c-2.8,0-5.8,1-7.6,2.1l-1.6-5.6c1.9-1.1,5.7-2.4,10.8-2.4c9.2,0,12.2,5.4,12.2,12v9.6c0,2.7,0.1,5.2,0.4,6.7    H351z M350,321.4c-4.5-0.1-8,1-8,4.4c0,2.2,1.5,3.3,3.4,3.3c2.2,0,3.9-1.4,4.5-3.2c0.1-0.5,0.2-1,0.2-1.5V321.4z"/>
	</g>
</g>
<g>
	<g>
		<g id="XMLID_547_">
			<path class="st6" d="M766.6,193.8"/>
		</g>
	</g>
</g>
<g id="XMLID_462_">
	<path class="st7" d="M435.2,220.7h3.3c0.1,2.8,2.3,4,4.5,4c2.3,0,3.8-1.2,3.8-3.1c0-2.2-2.2-3.1-4.7-4c-2.9-1.1-6.2-2.3-6.2-6.1   c0-3.6,2.8-5.7,6.5-5.7c2.5,0,4.7,0.9,6.6,3.3l-2,2c-1.4-1.7-3.1-2.4-4.6-2.4c-1.8,0-3.1,1-3.1,2.5c0,1.9,2.1,2.7,4.4,3.6   c3,1.1,6.4,2.5,6.4,6.6c0,3.8-3,6.4-7.2,6.4C438.8,227.7,435.1,225.3,435.2,220.7z"/>
	<path class="st7" d="M453.9,219.9c0-5.1,3.1-7.8,7.2-7.8c4.2,0,7.3,2.7,7.3,7.8c0,5.1-3.1,7.8-7.3,7.8   C456.9,227.7,453.9,225,453.9,219.9z M465.1,219.9c0-3.5-1.6-5.1-4-5.1c-2.4,0-4,1.6-4,5.1c0,3.5,1.6,5.1,4,5.1   C463.5,225,465.1,223.4,465.1,219.9z"/>
	<path class="st7" d="M472.4,219.9c0-4.3,2.3-7.9,7-7.9c3.1,0,5.3,1.6,6.4,4.3l-2.8,1.1c-0.7-1.7-2-2.6-3.5-2.6   c-2.7,0-3.7,2.5-3.7,5c0,2.6,1,5,3.7,5c1.8,0,3-1.1,3.5-2.6l2.7,1.1c-1.1,2.8-3.3,4.4-6.3,4.4C474.7,227.7,472.4,224.1,472.4,219.9   z"/>
	<path class="st7" d="M490.3,205.9h3.5v3.3h-3.5V205.9z M490.4,212.2h3.2v15.2h-3.2V212.2z"/>
	<path class="st7" d="M512.2,220.7h-10.3c0.2,2.3,1.3,4.1,4,4.1c1.3,0,2.6-0.4,3.5-1.3l2.5,1.2c-1.5,2-3.7,2.9-6.2,2.9   c-4.7,0-7.2-3.2-7.2-7.7c0-4.4,2.5-7.9,7-7.9c4.5,0,6.7,3.5,6.7,7.5C512.3,220,512.3,220.5,512.2,220.7z M501.9,218.8h7.2   c0-2.2-1.1-4-3.5-4C502.9,214.8,502,216.8,501.9,218.8z"/>
	<path class="st7" d="M530.4,205.9v21.5h-3.2v-1.9h-0.1c-0.9,1.3-2.5,2.2-4.6,2.2c-4.1,0-6.2-3.4-6.2-7.9c0-4.5,2.1-7.9,6.2-7.9   c2.1,0,3.7,1,4.6,2.3h0v-8.3H530.4z M527.3,219.8c0-3-1.5-4.9-3.8-4.9c-2.6,0-3.9,1.9-3.9,4.9c0,3,1.3,5,3.9,5   C525.8,224.8,527.3,222.8,527.3,219.8z"/>
	<path class="st7" d="M535.3,223.4c0-2.2,1.3-3.3,3.1-3.9c1.3-0.5,3-0.7,4.3-0.9c1.4-0.3,2.6-0.9,2.6-2s-1.2-1.9-2.9-1.9   c-1.8,0-3.6,0.8-4.6,2.2l-2.3-1.7c1.5-1.9,3.8-3.1,6.8-3.1c3.2,0,6.1,1.5,6.1,4.8v7.5l0.3,3.1h-2.9l-0.3-2.2h-0.2   c-0.9,1.7-2.8,2.6-4.9,2.6C537.3,227.7,535.3,226.1,535.3,223.4z M545.5,220.8v-1.2h-0.1c-1.3,1.2-3.6,1.2-4.9,1.7   c-1,0.3-1.7,0.8-1.7,1.9c0,1.2,1,1.9,2.6,1.9C543.1,225.2,545.5,224.2,545.5,220.8z"/>
	<path class="st7" d="M567.1,205.9v21.5H564v-1.9h-0.1c-0.9,1.3-2.5,2.2-4.6,2.2c-4.1,0-6.2-3.4-6.2-7.9c0-4.5,2.1-7.9,6.2-7.9   c2.1,0,3.7,1,4.6,2.3h0v-8.3H567.1z M564,219.8c0-3-1.5-4.9-3.8-4.9c-2.6,0-3.9,1.9-3.9,4.9c0,3,1.3,5,3.9,5   C562.5,224.8,564,222.8,564,219.8z"/>
	<path class="st7" d="M594.7,205.9v21.5h-3.2v-1.9h-0.1c-0.9,1.3-2.5,2.2-4.6,2.2c-4.1,0-6.2-3.4-6.2-7.9c0-4.5,2.1-7.9,6.2-7.9   c2.1,0,3.7,1,4.6,2.3h0v-8.3H594.7z M591.6,219.8c0-3-1.5-4.9-3.8-4.9c-2.6,0-3.9,1.9-3.9,4.9c0,3,1.3,5,3.9,5   C590.1,224.8,591.6,222.8,591.6,219.8z"/>
	<path class="st7" d="M613.2,220.7h-10.3c0.2,2.3,1.3,4.1,4,4.1c1.3,0,2.6-0.4,3.5-1.3l2.5,1.2c-1.5,2-3.7,2.9-6.2,2.9   c-4.7,0-7.2-3.2-7.2-7.7c0-4.4,2.5-7.9,7-7.9c4.5,0,6.7,3.5,6.7,7.5C613.3,220,613.2,220.5,613.2,220.7z M602.8,218.8h7.2   c0-2.2-1.1-4-3.5-4C603.9,214.8,602.9,216.8,602.8,218.8z"/>
	<path class="st7" d="M435.9,249.2h7.7c4.5,0,7.2,2.6,7.2,6.9c0,4.2-2.6,6.6-7.2,6.6h-4.4v8h-3.4V249.2z M443.5,259.7   c2.6,0,4-1.3,4-3.6c0-2.3-1.4-3.8-4-3.8h-4.3v7.4H443.5z"/>
	<path class="st7" d="M455.3,255.5h3.2v2.6h0.1c0.8-1.9,2.2-2.8,4-2.8c0.5,0,1,0.1,1.5,0.2v3.3c-0.7-0.2-1.3-0.3-1.8-0.3   c-2.1,0-3.7,1.5-3.7,5v7.2h-3.2V255.5z"/>
	<path class="st7" d="M466.9,263.2c0-5.1,3.1-7.8,7.2-7.8c4.2,0,7.3,2.7,7.3,7.8c0,5.1-3.1,7.8-7.3,7.8   C469.9,271,466.9,268.3,466.9,263.2z M478.1,263.2c0-3.5-1.6-5.1-4-5.1c-2.4,0-4,1.6-4,5.1c0,3.5,1.6,5.1,4,5.1   C476.5,268.3,478.1,266.7,478.1,263.2z"/>
	<path class="st7" d="M486.2,255.5h3.2v2.1h0.1c0.8-1.4,2.1-2.4,4.1-2.4c1.9,0,3.3,0.9,4.1,2.7h0.2c1-1.8,2.3-2.7,4.5-2.7   c3.4,0,4.9,2.3,4.9,5.7v9.8H504v-9.4c0-1.8-0.8-3.2-2.7-3.2c-2.1,0-3,1.7-3,3.8v8.8h-3.2v-9.5c0-1.9-0.7-3.2-2.6-3.2   c-2.2,0-3,1.7-3,3.8v8.8h-3.2V255.5z"/>
	<path class="st7" d="M511.9,263.2c0-5.1,3.1-7.8,7.2-7.8c4.2,0,7.3,2.7,7.3,7.8c0,5.1-3.1,7.8-7.3,7.8   C514.9,271,511.9,268.3,511.9,263.2z M523.1,263.2c0-3.5-1.6-5.1-4-5.1c-2.4,0-4,1.6-4,5.1c0,3.5,1.6,5.1,4,5.1   C521.5,268.3,523.1,266.7,523.1,263.2z"/>
	<path class="st7" d="M530.4,263.2c0-4.3,2.3-7.9,7-7.9c3.1,0,5.3,1.6,6.4,4.3l-2.8,1.1c-0.7-1.7-2-2.6-3.5-2.6   c-2.7,0-3.7,2.5-3.7,5c0,2.6,1,5,3.7,5c1.8,0,3-1.1,3.5-2.6l2.7,1.1c-1.1,2.8-3.3,4.4-6.3,4.4C532.7,271,530.4,267.4,530.4,263.2z"/>
	<path class="st7" d="M548.3,249.2h3.5v3.3h-3.5V249.2z M548.4,255.5h3.2v15.2h-3.2V255.5z"/>
	<path class="st7" d="M556.6,263.2c0-5.1,3.1-7.8,7.2-7.8c4.2,0,7.3,2.7,7.3,7.8c0,5.1-3.1,7.8-7.3,7.8   C559.6,271,556.6,268.3,556.6,263.2z M567.8,263.2c0-3.5-1.6-5.1-4-5.1c-2.4,0-4,1.6-4,5.1c0,3.5,1.6,5.1,4,5.1   C566.2,268.3,567.8,266.7,567.8,263.2z M566,249.2h3.7l-4.7,4.2h-2.4L566,249.2z"/>
	<path class="st7" d="M575.9,255.5h3.2v2.1h0.2c0.9-1.5,2.4-2.4,4.5-2.4c3.1,0,5.1,2.2,5.1,5.6v9.9h-3.2v-9.4c0-2.3-1.1-3.3-2.8-3.3   c-2.2,0-3.7,1.5-3.7,3.8v9h-3.2V255.5z"/>
	<path class="st7" d="M603.8,249.2H618v3h-10.8v6.2h9.7v3h-9.7v6.2H618v3.1h-14.2V249.2z"/>
	<path class="st7" d="M621.2,263.2c0-4.3,2.3-7.9,7-7.9c3.1,0,5.3,1.6,6.4,4.3l-2.8,1.1c-0.7-1.7-2-2.6-3.5-2.6   c-2.7,0-3.7,2.5-3.7,5c0,2.6,1,5,3.7,5c1.8,0,3-1.1,3.5-2.6l2.7,1.1c-1.1,2.8-3.3,4.4-6.3,4.4C623.5,271,621.2,267.4,621.2,263.2z"/>
	<path class="st7" d="M637.4,263.2c0-5.1,3.1-7.8,7.2-7.8c4.2,0,7.3,2.7,7.3,7.8c0,5.1-3.1,7.8-7.3,7.8   C640.4,271,637.4,268.3,637.4,263.2z M648.6,263.2c0-3.5-1.6-5.1-4-5.1c-2.4,0-4,1.6-4,5.1c0,3.5,1.6,5.1,4,5.1   C647,268.3,648.6,266.7,648.6,263.2z"/>
	<path class="st7" d="M656.1,255.5h3.2v2.1h0.2c0.9-1.5,2.4-2.4,4.5-2.4c3.1,0,5.1,2.2,5.1,5.6v9.9h-3.2v-9.4c0-2.3-1.1-3.3-2.8-3.3   c-2.2,0-3.7,1.5-3.7,3.8v9h-3.2V255.5z"/>
	<path class="st7" d="M673.1,263.2c0-5.1,3.1-7.8,7.2-7.8c4.2,0,7.3,2.7,7.3,7.8c0,5.1-3.1,7.8-7.3,7.8   C676.1,271,673.1,268.3,673.1,263.2z M684.3,263.2c0-3.5-1.6-5.1-4-5.1c-2.4,0-4,1.6-4,5.1c0,3.5,1.6,5.1,4,5.1   C682.7,268.3,684.3,266.7,684.3,263.2z M682.5,249.2h3.7l-4.7,4.2h-2.4L682.5,249.2z"/>
	<path class="st7" d="M691.7,255.5h3.2v2.1h0.1c0.8-1.4,2.1-2.4,4.1-2.4c1.9,0,3.3,0.9,4.1,2.7h0.2c1-1.8,2.3-2.7,4.5-2.7   c3.4,0,4.9,2.3,4.9,5.7v9.8h-3.2v-9.4c0-1.8-0.8-3.2-2.7-3.2c-2.1,0-3,1.7-3,3.8v8.8h-3.2v-9.5c0-1.9-0.7-3.2-2.6-3.2   c-2.2,0-3,1.7-3,3.8v8.8h-3.2V255.5z"/>
	<path class="st7" d="M717.9,249.2h3.5v3.3h-3.5V249.2z M718,255.5h3.2v15.2H718V255.5z"/>
	<path class="st7" d="M725.5,263.2c0-4.3,2.3-7.9,7-7.9c3.1,0,5.3,1.6,6.4,4.3l-2.8,1.1c-0.7-1.7-2-2.6-3.5-2.6   c-2.7,0-3.7,2.5-3.7,5c0,2.6,1,5,3.7,5c1.8,0,3-1.1,3.5-2.6l2.7,1.1c-1.1,2.8-3.3,4.4-6.3,4.4C727.9,271,725.5,267.4,725.5,263.2z"/>
	<path class="st7" d="M741.8,266.7c0-2.2,1.3-3.3,3.1-3.9c1.3-0.5,3-0.7,4.3-0.9c1.4-0.3,2.6-0.9,2.6-2s-1.2-1.9-2.9-1.9   c-1.8,0-3.6,0.8-4.6,2.2l-2.3-1.7c1.5-1.9,3.8-3.1,6.8-3.1c3.2,0,6.1,1.5,6.1,4.8v7.5l0.3,3.1h-2.9l-0.3-2.2h-0.2   c-0.9,1.7-2.8,2.6-4.9,2.6C743.8,271,741.8,269.4,741.8,266.7z M752,264.1v-1.2h-0.1c-1.3,1.2-3.6,1.2-4.9,1.7   c-1,0.3-1.7,0.8-1.7,1.9c0,1.2,1,1.9,2.6,1.9C749.6,268.5,752,267.5,752,264.1z"/>
</g>
<g>
	<g>
		<path id="XMLID_460_" class="st8" d="M368.4,193.8"/>
	</g>
</g>
</svg>